name rise30.2954peak35.7071fall66.7804.mot
datacolumns 19
datarows 15
range 14.10994900000000 14.13328100000000
endheader
time	ground_force1_vx	ground_force1_vy	ground_force1_vz	ground_force1_px	ground_force1_py	ground_force1_pz	ground_force2_vx	ground_force2_vy	ground_force2_vz	ground_force2_px	ground_force2_py	ground_force2_pz	ground_torque1_x	ground_torque1_y	ground_torque1_z	ground_torque2_x	ground_torque2_y	ground_torque2_z	
14.10994900000000	54.38909700000000	777.54707199999996	70.30265400000000	0.29598200000000	0.00000000000000	0.15918300000000	0.00000000000000	0.00000000000000	0.00000000000000	0.00000000000000	0.00000000000000	0.00000000000000	0.00000000000000	23.85044500000000	0.00000000000000	0.00000000000000	0.00000000000000	0.00000000000000	
14.11162100000000	53.67429500000000	779.86054899999999	70.40007199999999	0.29498300000000	0.00000000000000	0.15913300000000	0.00000000000000	0.00000000000000	0.00000000000000	0.00000000000000	0.00000000000000	0.00000000000000	0.00000000000000	23.97794200000000	0.00000000000000	0.00000000000000	0.00000000000000	0.00000000000000	
14.11328800000000	52.96140000000000	782.01867600000003	70.49174400000000	0.29399800000000	0.00000000000000	0.15908400000000	0.00000000000000	0.00000000000000	0.00000000000000	0.00000000000000	0.00000000000000	0.00000000000000	0.00000000000000	24.10309700000000	0.00000000000000	0.00000000000000	0.00000000000000	0.00000000000000	
14.11496200000000	52.25080800000000	784.02044899999999	70.57775400000000	0.29302500000000	0.00000000000000	0.15903500000000	0.00000000000000	0.00000000000000	0.00000000000000	0.00000000000000	0.00000000000000	0.00000000000000	0.00000000000000	24.22584500000000	0.00000000000000	0.00000000000000	0.00000000000000	0.00000000000000	
14.11661400000000	51.54284600000000	785.86508900000001	70.65812300000000	0.29206300000000	0.00000000000000	0.15898600000000	0.00000000000000	0.00000000000000	0.00000000000000	0.00000000000000	0.00000000000000	0.00000000000000	0.00000000000000	24.34609500000000	0.00000000000000	0.00000000000000	0.00000000000000	0.00000000000000	
14.11828800000000	50.83777500000000	787.55205200000000	70.73281000000000	0.29111100000000	0.00000000000000	0.15893800000000	0.00000000000000	0.00000000000000	0.00000000000000	0.00000000000000	0.00000000000000	0.00000000000000	0.00000000000000	24.46373300000000	0.00000000000000	0.00000000000000	0.00000000000000	0.00000000000000	
14.11995100000000	50.13580000000000	789.08103500000004	70.80172200000000	0.29016800000000	0.00000000000000	0.15889100000000	0.00000000000000	0.00000000000000	0.00000000000000	0.00000000000000	0.00000000000000	0.00000000000000	0.00000000000000	24.57862100000000	0.00000000000000	0.00000000000000	0.00000000000000	0.00000000000000	
14.12161400000000	49.43706400000000	790.45199100000002	70.86470799999999	0.28923100000000	0.00000000000000	0.15884400000000	0.00000000000000	0.00000000000000	0.00000000000000	0.00000000000000	0.00000000000000	0.00000000000000	0.00000000000000	24.69060000000000	0.00000000000000	0.00000000000000	0.00000000000000	0.00000000000000	
14.12328400000000	48.74166100000000	791.66512899999998	70.92157200000000	0.28830000000000	0.00000000000000	0.15879800000000	0.00000000000000	0.00000000000000	0.00000000000000	0.00000000000000	0.00000000000000	0.00000000000000	0.00000000000000	24.79949400000000	0.00000000000000	0.00000000000000	0.00000000000000	0.00000000000000	
14.12494800000000	48.04963600000000	792.72092499999997	70.97207200000000	0.28737400000000	0.00000000000000	0.15875200000000	0.00000000000000	0.00000000000000	0.00000000000000	0.00000000000000	0.00000000000000	0.00000000000000	0.00000000000000	24.90510800000000	0.00000000000000	0.00000000000000	0.00000000000000	0.00000000000000	
14.12662100000000	47.36098900000000	793.62012600000003	71.01592400000000	0.28645000000000	0.00000000000000	0.15870800000000	0.00000000000000	0.00000000000000	0.00000000000000	0.00000000000000	0.00000000000000	0.00000000000000	0.00000000000000	25.00723200000000	0.00000000000000	0.00000000000000	0.00000000000000	0.00000000000000	
14.12828300000000	46.67568500000000	794.36375299999997	71.05280800000000	0.28552700000000	0.00000000000000	0.15866400000000	0.00000000000000	0.00000000000000	0.00000000000000	0.00000000000000	0.00000000000000	0.00000000000000	0.00000000000000	25.10564400000000	0.00000000000000	0.00000000000000	0.00000000000000	0.00000000000000	
14.12995100000000	45.99365100000000	794.95310300000006	71.08237300000000	0.28460400000000	0.00000000000000	0.15862000000000	0.00000000000000	0.00000000000000	0.00000000000000	0.00000000000000	0.00000000000000	0.00000000000000	0.00000000000000	25.20011100000000	0.00000000000000	0.00000000000000	0.00000000000000	0.00000000000000	
14.13162000000000	45.31478800000000	795.38975000000005	71.10424100000000	0.28367900000000	0.00000000000000	0.15857700000000	0.00000000000000	0.00000000000000	0.00000000000000	0.00000000000000	0.00000000000000	0.00000000000000	0.00000000000000	25.29039200000000	0.00000000000000	0.00000000000000	0.00000000000000	0.00000000000000	
14.13328100000000	44.63897200000000	795.67554800000005	71.11801100000000	0.28275000000000	0.00000000000000	0.15853500000000	0.00000000000000	0.00000000000000	0.00000000000000	0.00000000000000	0.00000000000000	0.00000000000000	0.00000000000000	25.37623900000000	0.00000000000000	0.00000000000000	0.00000000000000	0.00000000000000	
